<svg width="48" height="48" viewBox="0 0 48 48" fill="none" xmlns="http://www.w3.org/2000/svg">
<g filter="url(#filter0_d_1013_4351)">
<g clip-path="url(#clip0_1013_4351)">
<rect x="4" width="40" height="40" rx="3" fill="#887F7F"/>
<path d="M23.0476 1.90479H5.90479V19.0476H23.0476V1.90479Z" fill="#F25022"/>
<path d="M23.0476 20.9524H5.90479V38.0953H23.0476V20.9524Z" fill="#00A4EF"/>
<path d="M42.0953 1.90479H24.9524V19.0476H42.0953V1.90479Z" fill="#7FBA00"/>
<path d="M42.0953 20.9524H24.9524V38.0953H42.0953V20.9524Z" fill="#FFB900"/>
<rect x="2.13953" y="-2.79065" width="43.7209" height="43.7209" fill="#FFFCFC"/>
<g clip-path="url(#clip1_1013_4351)">
<path d="M35.6198 7H13.3802C12.6177 7 12 7.61771 12 8.38021V30.6208C12 31.3823 12.6177 32 13.3802 32H25.3542V22.3187H22.0958V18.5458H25.3542V15.7635C25.3542 12.5344 27.326 10.776 30.2073 10.776C31.5875 10.776 32.7729 10.8792 33.1187 10.925V14.3L31.1208 14.301C29.5542 14.301 29.251 15.0458 29.251 16.1375V18.5469H32.9875L32.501 22.3198H29.251V32H35.6219C36.3823 32 37 31.3823 37 30.6198V8.38021C37 7.61771 36.3823 7 35.6198 7V7Z" fill="black"/>
</g>
</g>
</g>
<defs>
<filter id="filter0_d_1013_4351" x="0" y="0" width="48" height="48" filterUnits="userSpaceOnUse" color-interpolation-filters="sRGB">
<feFlood flood-opacity="0" result="BackgroundImageFix"/>
<feColorMatrix in="SourceAlpha" type="matrix" values="0 0 0 0 0 0 0 0 0 0 0 0 0 0 0 0 0 0 127 0" result="hardAlpha"/>
<feOffset dy="4"/>
<feGaussianBlur stdDeviation="2"/>
<feComposite in2="hardAlpha" operator="out"/>
<feColorMatrix type="matrix" values="0 0 0 0 0 0 0 0 0 0 0 0 0 0 0 0 0 0 0.25 0"/>
<feBlend mode="normal" in2="BackgroundImageFix" result="effect1_dropShadow_1013_4351"/>
<feBlend mode="normal" in="SourceGraphic" in2="effect1_dropShadow_1013_4351" result="shape"/>
</filter>
<clipPath id="clip0_1013_4351">
<rect x="4" width="40" height="40" rx="3" fill="white"/>
</clipPath>
<clipPath id="clip1_1013_4351">
<rect width="25" height="25" fill="white" transform="translate(12 7)"/>
</clipPath>
</defs>
</svg>
